# xmcd
#
# Track frame offsets: 
#        150
#        14353
#        28183
#        41898
#        55601
#        69780
#        84108
#        97377
#        112369
#        126262
#        138271
#        149465
#        165622
#        178383
#        190698
#
# Disc length: 2722 seconds
#
# Revision: 0
# Processed by: cddbd v1.5.2PL0 Copyright (c) Steve Scherf et al.
# Submitted via: ExactAudioCopy v0.95b4
#
DISCID=d90aa00f
DTITLE=Kelli Grant - Swings and Sings
DYEAR=2008
DGENRE=Country
TTITLE0=Goody, Goody
TTITLE1=Walking My Baby Back Home
TTITLE2=Zing, Went The Strings Of My Heart
TTITLE3=My Blue Heaven
TTITLE4=Hodge Podge
TTITLE5=Swing Me Back To Texas
TTITLE6=Rolly Poley
TTITLE7=I'm Satisfied With You
TTITLE8=Midnight In Old Amarillo
TTITLE9=Don't Mess With Texas
TTITLE10=Bubbles In My Beer
TTITLE11=There Ain't No Doubt
TTITLE12=One Heart To Give
TTITLE13=Across The Alley From The Alamo
TTITLE14=Stand Up For The U.S.A.
EXTD=
EXTT0=
EXTT1=
EXTT2=
EXTT3=
EXTT4=
EXTT5=
EXTT6=
EXTT7=
EXTT8=
EXTT9=
EXTT10=
EXTT11=
EXTT12=
EXTT13=
EXTT14=
PLAYORDER=
